<svg width="24" height="24" viewBox="0 0 24 24" fill="none" xmlns="http://www.w3.org/2000/svg">
<path d="M2.06947 15.6282C1.81116 15.8865 1.67025 16.2153 1.67025 16.6027C1.67025 17.3777 2.28082 18 3.05577 18C3.44325 18 3.7955 17.8356 4.06556 17.5656L12.0969 9.34638L20.1047 17.5656C20.3748 17.8356 20.7387 18 21.1145 18C21.8894 18 22.5 17.3777 22.5 16.6027C22.5 16.2153 22.3591 15.8865 22.1008 15.6282L13.1771 6.49315C12.8718 6.16438 12.4961 6.01174 12.0851 6C11.6742 6 11.3219 6.16438 11.0049 6.49315L2.06947 15.6282Z" fill="#248641"/>
</svg>
